<mxfile host="65bd71144e">
    <diagram name="singleton_1" id="-Z52gMzrZzrflX0aPiBJ">
        <mxGraphModel dx="732" dy="354" grid="1" gridSize="10" guides="1" tooltips="1" connect="1" arrows="1" fold="1" page="1" pageScale="1" pageWidth="827" pageHeight="1169" math="0" shadow="0">
            <root>
                <mxCell id="5Akw9gAnhdAU1XaQ8N-A-0"/>
                <mxCell id="5Akw9gAnhdAU1XaQ8N-A-1" parent="5Akw9gAnhdAU1XaQ8N-A-0"/>
                <mxCell id="5Akw9gAnhdAU1XaQ8N-A-2" value="&lt;p style=&quot;margin: 0px ; margin-top: 4px ; text-align: center&quot;&gt;&lt;font style=&quot;font-size: 12px&quot;&gt;&lt;b&gt;&lt;u&gt;Singleton&lt;/u&gt;&lt;/b&gt;&lt;/font&gt;&lt;/p&gt;&lt;hr size=&quot;1&quot;&gt;&lt;p style=&quot;margin: 0px ; margin-left: 4px&quot;&gt;&lt;font size=&quot;3&quot;&gt;&lt;u&gt;- instance: Singleton&lt;/u&gt;&lt;/font&gt;&lt;/p&gt;&lt;p style=&quot;margin: 0px ; margin-left: 4px&quot;&gt;&lt;font size=&quot;3&quot;&gt;- counter: int&lt;/font&gt;&lt;/p&gt;&lt;hr size=&quot;1&quot;&gt;&lt;p style=&quot;margin: 0px ; margin-left: 4px&quot;&gt;&lt;font size=&quot;3&quot;&gt;- Singleton&lt;/font&gt;&lt;span style=&quot;font-size: medium&quot;&gt;()&lt;/span&gt;&lt;/p&gt;&lt;p style=&quot;margin: 0px ; margin-left: 4px&quot;&gt;&lt;font size=&quot;3&quot;&gt;&lt;u&gt;+ getInstance(): Singleton&lt;/u&gt;&lt;br&gt;&lt;/font&gt;&lt;/p&gt;&lt;p style=&quot;margin: 0px ; margin-left: 4px&quot;&gt;&lt;br&gt;&lt;/p&gt;&lt;p style=&quot;margin: 0px ; margin-left: 4px&quot;&gt;&lt;br&gt;&lt;/p&gt;&lt;p style=&quot;margin: 0px ; margin-left: 4px&quot;&gt;&lt;br&gt;&lt;/p&gt;" style="verticalAlign=top;align=left;overflow=fill;fontSize=12;fontFamily=Helvetica;html=1;" parent="5Akw9gAnhdAU1XaQ8N-A-1" vertex="1">
                    <mxGeometry x="70" y="240" width="240" height="130" as="geometry"/>
                </mxCell>
                <mxCell id="5Akw9gAnhdAU1XaQ8N-A-3" value="" style="endArrow=open;endFill=1;endSize=12;html=1;entryX=0.722;entryY=0.009;entryDx=0;entryDy=0;entryPerimeter=0;" parent="5Akw9gAnhdAU1XaQ8N-A-1" target="5Akw9gAnhdAU1XaQ8N-A-2" edge="1">
                    <mxGeometry width="160" relative="1" as="geometry">
                        <mxPoint x="312" y="340" as="sourcePoint"/>
                        <mxPoint x="200" y="200" as="targetPoint"/>
                        <Array as="points">
                            <mxPoint x="360" y="340"/>
                            <mxPoint x="360" y="200"/>
                            <mxPoint x="240" y="200"/>
                        </Array>
                    </mxGeometry>
                </mxCell>
                <mxCell id="5Akw9gAnhdAU1XaQ8N-A-4" style="edgeStyle=orthogonalEdgeStyle;rounded=0;orthogonalLoop=1;jettySize=auto;html=1;exitX=0.5;exitY=1;exitDx=0;exitDy=0;" parent="5Akw9gAnhdAU1XaQ8N-A-1" source="5Akw9gAnhdAU1XaQ8N-A-2" target="5Akw9gAnhdAU1XaQ8N-A-2" edge="1">
                    <mxGeometry relative="1" as="geometry"/>
                </mxCell>
            </root>
        </mxGraphModel>
    </diagram>
    <diagram name="singleton_2" id="8FmO8vae8uXLd_UL74gF">
        <mxGraphModel dx="732" dy="354" grid="1" gridSize="10" guides="1" tooltips="1" connect="1" arrows="1" fold="1" page="1" pageScale="1" pageWidth="827" pageHeight="1169" math="0" shadow="0">
            <root>
                <mxCell id="rjKnRlafuyBngDvl9Qdj-0"/>
                <mxCell id="rjKnRlafuyBngDvl9Qdj-1" parent="rjKnRlafuyBngDvl9Qdj-0"/>
                <mxCell id="rjKnRlafuyBngDvl9Qdj-2" value="&lt;p style=&quot;margin: 0px ; margin-top: 4px ; text-align: center&quot;&gt;&lt;font style=&quot;font-size: 12px&quot;&gt;&lt;b&gt;&lt;u&gt;Singleton&lt;/u&gt;&lt;/b&gt;&lt;/font&gt;&lt;/p&gt;&lt;hr size=&quot;1&quot;&gt;&lt;p style=&quot;margin: 0px ; margin-left: 4px&quot;&gt;&lt;font size=&quot;3&quot;&gt;&lt;u&gt;- instance: Singleton&lt;/u&gt;&lt;/font&gt;&lt;/p&gt;&lt;p style=&quot;margin: 0px ; margin-left: 4px&quot;&gt;&lt;font size=&quot;3&quot;&gt;- counter: int&lt;/font&gt;&lt;/p&gt;&lt;hr size=&quot;1&quot;&gt;&lt;p style=&quot;margin: 0px ; margin-left: 4px&quot;&gt;&lt;font size=&quot;3&quot;&gt;- Singleton&lt;/font&gt;&lt;span style=&quot;font-size: medium&quot;&gt;()&lt;/span&gt;&lt;/p&gt;&lt;p style=&quot;margin: 0px ; margin-left: 4px&quot;&gt;&lt;font size=&quot;3&quot;&gt;&lt;u&gt;+ getInstance(): Singleton&lt;/u&gt;&lt;br&gt;&lt;/font&gt;&lt;/p&gt;&lt;p style=&quot;margin: 0px ; margin-left: 4px&quot;&gt;&lt;font size=&quot;3&quot;&gt;+ actOnEvent(): void&lt;br&gt;&lt;/font&gt;&lt;/p&gt;&lt;p style=&quot;margin: 0px ; margin-left: 4px&quot;&gt;&lt;span style=&quot;font-size: medium&quot;&gt;+ getCounter(): int&lt;/span&gt;&lt;font size=&quot;3&quot;&gt;&lt;br&gt;&lt;/font&gt;&lt;/p&gt;&lt;p style=&quot;margin: 0px ; margin-left: 4px&quot;&gt;&lt;br&gt;&lt;/p&gt;&lt;p style=&quot;margin: 0px ; margin-left: 4px&quot;&gt;&lt;br&gt;&lt;/p&gt;" style="verticalAlign=top;align=left;overflow=fill;fontSize=12;fontFamily=Helvetica;html=1;" parent="rjKnRlafuyBngDvl9Qdj-1" vertex="1">
                    <mxGeometry x="70" y="240" width="240" height="170" as="geometry"/>
                </mxCell>
                <mxCell id="rjKnRlafuyBngDvl9Qdj-3" value="" style="endArrow=open;endFill=1;endSize=12;html=1;entryX=0.722;entryY=0.009;entryDx=0;entryDy=0;entryPerimeter=0;" parent="rjKnRlafuyBngDvl9Qdj-1" target="rjKnRlafuyBngDvl9Qdj-2" edge="1">
                    <mxGeometry width="160" relative="1" as="geometry">
                        <mxPoint x="312" y="380" as="sourcePoint"/>
                        <mxPoint x="200" y="200" as="targetPoint"/>
                        <Array as="points">
                            <mxPoint x="360" y="380"/>
                            <mxPoint x="360" y="200"/>
                            <mxPoint x="240" y="200"/>
                        </Array>
                    </mxGeometry>
                </mxCell>
                <mxCell id="rjKnRlafuyBngDvl9Qdj-4" style="edgeStyle=orthogonalEdgeStyle;rounded=0;orthogonalLoop=1;jettySize=auto;html=1;exitX=0.5;exitY=1;exitDx=0;exitDy=0;" parent="rjKnRlafuyBngDvl9Qdj-1" source="rjKnRlafuyBngDvl9Qdj-2" target="rjKnRlafuyBngDvl9Qdj-2" edge="1">
                    <mxGeometry relative="1" as="geometry"/>
                </mxCell>
            </root>
        </mxGraphModel>
    </diagram>
</mxfile>